<svg xmlns="http://www.w3.org/2000/svg" xmlns:xlink="http://www.w3.org/1999/xlink" width="38" height="44" version="1.1" viewBox="0 0 38 44"><title>Imported Layers</title><desc>Created with Sketch.</desc><g id="Page-1" fill="none" fill-rule="evenodd" stroke="none" stroke-width="1"><g id="Desktop-HD" fill="#333" transform="translate(-32.000000, -10.000000)"><g id="Imported-Layers" transform="translate(32.000000, 10.000000)"><polyline id="Fill-17" points="0 4.48 18.707 0 37.134 4.233 36.395 5.538 1.104 5.538"/><polygon id="Fill-18" points=".936 6.553 36.333 6.553 36.333 10.362 .936 10.362"/><polygon id="Fill-19" points=".936 38.383 36.333 38.383 36.333 40.922 .936 40.922"/><polyline id="Fill-20" points="0 41.191 37.943 41.191 37.943 43.096 0 43.096 0 41.191"/><polyline id="Fill-21" points="1.341 11.428 1.781 11.234 4.136 11.234 4.558 11.446 4.769 14.832 4.98 20.333 4.98 25.624 4.769 32.219 4.734 36.663 4.136 36.839 2.026 36.839 1.393 36.663 1.148 32.219 .936 25.659 .936 20.369 1.148 14.832 1.341 11.428"/><polyline id="Fill-22" points="32.234 11.428 32.674 11.234 35.029 11.234 35.452 11.446 35.662 14.832 35.873 20.333 35.873 25.624 35.662 32.219 35.628 36.663 35.029 36.839 32.92 36.839 32.287 36.663 32.04 32.219 31.83 25.659 31.83 20.369 32.04 14.832 32.234 11.428"/><polyline id="Fill-23" points="11.638 11.428 12.078 11.234 14.434 11.234 14.856 11.446 15.067 14.832 15.278 20.333 15.278 25.624 15.067 32.219 15.032 36.663 14.434 36.839 12.324 36.839 11.691 36.663 11.445 32.219 11.234 25.659 11.234 20.369 11.445 14.832 11.638 11.428"/><polyline id="Fill-24" points="22.873 11.428 23.312 11.234 25.668 11.234 26.09 11.446 26.301 14.832 26.512 20.333 26.512 25.624 26.301 32.219 26.266 36.663 25.668 36.839 23.558 36.839 22.925 36.663 22.679 32.219 22.468 25.659 22.468 20.369 22.679 14.832 22.873 11.428"/></g></g></g></svg>