<svg xmlns="http://www.w3.org/2000/svg" width="24" height="32" aria-labelledby="playbackSpeedTitleID playbackSpeedDescID" version="1.1" viewBox="0 0 24 32"><title>Playback speed</title><desc>An illustration of a speedometer</desc><g fill="none" fill-rule="evenodd" stroke="#fff" stroke-width="1"><g><g><g><g><g><g stroke-linecap="round" transform="translate(-56.000000, -14.000000) translate(56.922243, 5.000000) translate(0.000000, 4.000000) translate(0.000000, 5.000000) translate(1.000000, 1.000000) translate(2.000000, 2.521739)"><line x1="8.5" x2="15.5" y1="9.978" y2="2.978" transform="translate(12.000000, 6.478261) rotate(180.000000) translate(-12.000000, -6.478261)"/><line x1="15.5" x2="15.5" y1="11.27" y2="8.27" transform="translate(15.500000, 9.769565) rotate(90.000000) translate(-15.500000, -9.769565)"/><line x1="16.156" x2="16.148" y1="5.775" y2="4.775" transform="translate(16.151778, 5.274979) rotate(240.000000) translate(-16.151778, -5.274979)"/><line x1="12.924" x2="12.916" y1="2.481" y2="1.481" transform="translate(12.919892, 1.980948) rotate(210.000000) translate(-12.919892, -1.980948)"/><line x1="8.5" x2="8.5" y1="3.478" y2=".478" transform="translate(8.500000, 1.978261) rotate(180.000000) translate(-8.500000, -1.978261)"/><line x1="4.076" x2="4.084" y1="2.481" y2="1.481" transform="translate(4.080108, 1.980948) rotate(150.000000) translate(-4.080108, -1.980948)"/><line x1=".844" x2=".852" y1="5.775" y2="4.775" transform="translate(0.848222, 5.274979) rotate(120.000000) translate(-0.848222, -5.274979)"/><line x1="1.5" x2="1.5" y1="11.27" y2="8.27" transform="translate(1.500000, 9.769565) rotate(90.000000) translate(-1.500000, -9.769565)"/></g><path stroke-width="2" d="M10.5,14.9867607 C22.0227273,14.9867607 20.9752066,15.5091468 20.9752066,9.99117383 C20.9752066,4.47320089 16.2852969,0 10.5,0 C4.71470314,0 0.0247933884,4.47320089 0.0247933884,9.99117383 C0.0247933884,15.5091468 -1.02272727,14.9867607 10.5,14.9867607 Z" transform="translate(-56.000000, -14.000000) translate(56.922243, 5.000000) translate(0.000000, 4.000000) translate(0.000000, 5.000000) translate(1.000000, 1.000000)"/></g></g></g></g></g></g></svg>